<svg version="1.2" xmlns="http://www.w3.org/2000/svg" viewBox="0 0 210 630" width="210" height="630">
	<title>loosebonusicon-ai</title>
	<style>
		.s0 { fill: none;stroke: #ffffff;stroke-linecap: round;stroke-linejoin: round;stroke-width: 4.5 } 
		.s1 { fill: #ffffff } 
	</style>
	<g id="Camada 1">
		<g id="&lt;Group&gt;">
			<g id="&lt;Group&gt;">
				<g id="Layer1 0 FILL">
				</g>
			</g>
		</g>
		<g id="&lt;Group&gt;">
			<g id="&lt;Group&gt;">
				<path id="Layer0 0 1 STROKES" class="s0" d="m18.5 118.3q-0.1-0.5-0.1-1.2-0.1-1.2 0.2-3 0.1-1 0.3-2.1 0.5-3.2 1.6-7.7 0-0.2 0.1-0.4l2.9-10.5 3.1 14.2 9-17.7 0.6 10.1q0.8 9.6 2 7.6 3.2-5.5 4.8-8.2 0.8-1.3 1.2-1.9 0.1-0.3 0.2-0.5 0.6-0.9 1.1-1.7 3.6-6 3.2-4.2-0.4 2.3-0.7 5.1-0.2 1.2-0.2 2.5-0.1 1.1-0.2 2.2-0.2 3.8-0.2 8.1 0 1.6 0 3 0 0.7 0 1.4 0.1 2.8 0.2 5.1-7.9-3.4-17.7-5.4l-8.2-1.4"/>
			</g>
		</g>
	</g>
	<g id="Layer">
		<path id="Layer" fill-rule="evenodd" class="s1" d="m49.5 31.6v17.2c0 1.3-1 2.3-2.3 2.3h-24.4c-1.3 0-2.3-1-2.3-2.3v-17.3c0-1.3 1-2.3 2.3-2.3h2.6v-5.4c0-4.3 4.1-9.1 9.5-9.1 5.4 0.1 9.5 4.8 9.5 9.1v5.4h2.8c1.3 0 2.3 1.1 2.3 2.4zm-20.6-2.3h12v-5.4c0-2.3-2.3-5.6-6-5.6-3.7 0-6 3.3-6 5.6z"/>
	</g>
</svg>