
<svg xmlns="http://www.w3.org/2000/svg" version="1.1" xmlns:xlink="http://www.w3.org/1999/xlink" preserveAspectRatio="none" x="0px" y="0px" width="126px" height="156px" viewBox="0 0 126 156">
<defs>
<g id="Mask_3_MASK_0_FILL">
<path fill="#FFFFFF" stroke="none" d="
M 98.5 18.15
Q 94.45 14.15 88.8 11.4 82.1 8.45 74.15 6.95
L 67.3 6.05 58.6 6.65
Q 52.6 6.25 47 7.9 41.65 9.55 34.65 13.7 29.3 16.95 24.55 23 22.15 26.35 20.95 28.45 19.25 31.35 17.5 36.35 14.15 46.6 13.8 59.15
L 12.65 67.05
Q 12 80.55 5.85 89.05 2.75 93.45 0.55 94.85 5.65 94.85 9.3 93.15 11.1 92.3 11.95 91.3 10.9 94.7 5.35 98.85
L 0.7 102.5
Q 5.4 103.1 9.85 101.9 13.95 100.75 17.4 98.3 18.75 106.85 21.2 113.4 22.65 117.25 24.3 120.15
L 24.3 171 93.5 171 93.5 123.2
Q 94.25 122.15 94.35 122.3 94.45 123.05 94.15 124.75 93.65 126.9 93.65 127.85 97.1 125.55 99.55 121.95
L 101.2 118.85 102.5 122.95
Q 104.55 119.5 107 114.25 111.75 104.35 112.5 97.2 112.75 93.95 112.8 91.2 115.35 93.6 116.75 94.55 116.95 94.65 117.2 94.8 117.4 94.85 117.55 94.95 118 95.15 118.25 94.95 118.25 94.9 118.25 94.85
L 118.3 94.8
Q 118.3 94.7 118.3 94.55 118.3 94.5 118.3 94.45 118.2 94.2 118.15 93.9 114.4 82.4 111.9 67.2
L 110.2 67.2 109.85 65.35
Q 109.05 62.95 110.15 58.6 111.45 53.45 111.3 51.3 109.6 40.6 108.8 37.2 107.2 31.6 103.9 25.55 101.5 21.4 98.5 18.15 Z"/>
</g>

<g id="Symbol_39_0_Layer23_0_FILL">
<path fill="#000000" stroke="none" d="
M 96.05 27.95
L 87.9 26.95 77.6 27.5
Q 70.3 27.05 63.75 29.05 57.35 31 49.1 35.95 42.6 39.85 37.1 47.1 34.2 50.85 32.75 53.6 30.8 56.85 28.7 62.95 24.65 75 24.25 90.05 24.3 90.65 19.25 95.55 14.25 100.55 14.25 101
L 18.2 100.6 22.85 99.5
Q 22.05 115.5 14.75 125.7 11.2 130.7 8.45 132.55 14.6 132.65 18.85 130.5 21.15 129.45 22 128.35 20.8 132.25 14.2 137.45
L 8.7 141.6
Q 14.1 142.35 19.5 140.95 24.55 139.6 28.45 136.7 30.15 146.75 33.1 154.7 37.05 165.7 42.75 169.85 43.3 170.3 43.2 168.3
L 42.95 165.6 45.95 168.85
Q 49.3 172.2 53.7 174
L 54.05 174.35 54.05 174.2 110.35 174.2
Q 114.444921875 172.3451171875 117.75 168.3 120 164.95 120.05 165.25 120.3 166.1 119.9 168.2 119.3 170.75 119.3 171.85 123.3 169.2 126.25 164.95
L 128.3 161.2 129 163.6
Q 129.3 165.25 129.75 166 132.2 162 135.2 155.7 139.8240234375 145.873828125 141.2 138.4
L 156.1 138.4 156.1 85.1 140.7 85.1
Q 140.431640625 82.992578125 140.25 80.8 138.25 68 137.25 64 135.45 57.35 131.5 50.1 128.45 44.75 125 41.25 120.1 36.35 113.45 33.25 105.75 29.75 96.05 27.95 Z"/>
</g>

<g id="Layer1_0_FILL">
<path fill="#D3D3D3" stroke="none" d="
M 98 68.35
L 98.1 56.85
Q 97.9 52.85 97.75 51.9 96.95 48 94.7 49.2 81.25 56.2 69.2 59.9 58.8 63.1 59.8 61.65 62.8 58.4 64.9 56.05 68.95 51.55 67.15 52.65 49.3 63.2 28.45 66.5 27.75 75.1 27.7 78.4 27.7 81.3 28.15 86.4 28.45 89.85 29.75 93.3 31.15 97.2 31.3 98.15 31.95 101.95 32.15 109.2 32.35 116.5 32.8 119.35 32.85 119.95 32.9 120.5 33.45 126.3 35.95 130.9 37.3 133.4 38.6 134.6 40.95 136.85 41.5 137.45 42 138 45.05 141.6 50.7 148.25 54.45 151.05 58.45 154 62.05 154 65.3 154 70.4 150.15 71.15 149.55 76.8 144.6 78.3 143.25 80.9 140.45 84 137.15 86 135.05 86.1 134.9 86.2 134.8 86.95 134.15 87.95 131.85 89.7 127.65 90.75 120.5 90.8 119.9 90.9 119.3 91.5 112.95 91.9 109.35 92 108.45 92.15 107.55 92.85 102.1 94.4 97.75 96.3 92.7 96.9 89
L 97.1 86.3
Q 97.75 80.95 98 68.35 Z"/>
</g>

<g id="Mask_djflex_svg_Layer_1__Clip_Group__1_0_2_MASK_0_FILL">
<path fill="#FFFFFF" stroke="none" d="
M 111 35
Q 106.6 28.35 98.6 22.6 94.25 19.5 87.4 15.9 86.05 12.7 83.25 9.55 77.7 3.2 70.65 3.45 65.85 3.65 60.65 6.75
L 56.45 9.8
Q 48.3 12.45 42.55 14.6 31.65 18.65 25.45 23.3 17.7 29.15 11.55 40 4.2 52.95 3.5 66.5 3 75.9 60.45 70.65 89.2 68 118 63.5 117.8 58.75 116.85 52.8 114.9 40.95 111 35 Z"/>
</g>

<g id="djflex_svg_Layer_1__Clip_Group__1_0_Layer2_0_MEMBER_0_FILL">
<path fill="#BFC6D4" stroke="none" d="
M 111 35
Q 106.65 28.35 98.65 22.6 94.25 19.5 87.4 15.9 86.05 12.7 83.25 9.55 77.7 3.2 70.65 3.45 65.8 3.65 60.6 6.75
L 56.4 9.8
Q 48.3 12.45 42.55 14.6 31.7 18.6 25.5 23.3 17.7 29.2 11.55 40 4.2 52.95 3.5 66.5 3.05 75.9 60.45 70.65 89.2 68 118 63.5 117.8 58.75 116.85 52.8 114.9 40.95 111 35 Z"/>
</g>

<g id="djflex_svg_Layer_1__Clip_Group__1_0_Layer2_0_MEMBER_1_FILL">
<path fill="#8390B9" stroke="none" d="
M 62.2 8.35
Q 65.1 4.05 70 3
L 10 0 0 68
Q 5.4 69 10.95 68.1 22 66.35 22.75 57 24.45 35.15 42.55 21.65 51.55 14.9 60.25 12.5
L 62.2 8.35 Z"/>
</g>

<g id="djflex_svg_Layer_1__Clip_Group__1_0_Layer2_0_MEMBER_2_FILL">
<path fill="#455B81" stroke="none" d="
M 81.75 18
L 84.4 19.85
Q 87.6 22.4 90.5 25.95 99.75 37.3 102.25 54.5 103.6 63.8 114.45 66.8 119.85 68.35 125 68
L 125 0 70.2 2.85
Q 75.272265625 3.0166015625 77.9 6.6 80.15 9.7 81.75 18 Z"/>
</g>

<g id="djflex_svg_Layer_1__Clip_Group__1_0_Layer2_0_MEMBER_3_FILL">
<path fill="#161C39" stroke="none" d="
M 81.3 31.75
L 82.2 37.6
Q 83.2 46.4 83.5 61.25 83.7 70.6 105.85 66 116.95 63.7 128 59.5
L 124.5 38.5
Q 112.65 32.1 97.25 29.9
L 84.25 29
Q 83 28.8 82.1 29.65 81.2 30.5 81.3 31.75 Z"/>
</g>

<g id="Mask_djflex_svg_Layer_1__Clip_Group__2_0_2_MASK_0_FILL">
<path fill="#FFFFFF" stroke="none" d="
M 137.85 35.55
Q 135.75 19.65 134.5 18.75 132.25 17.45 128.4 15.8 120.7 12.5 112.75 10.75 104.2 8.85 95.75 8.65 85.3 8.35 69.5 10.25 58 11.6 45.4 15.55 35.15 18.75 27.15 22.6 19.25 26.45 17.1 29 16 30.25 16.5 30.75
L 15.75 38.3
Q 14.3 49.6 14.1 55.75 14.05 57.1 15.15 57.95 15.7 58.4 16.5 58.75 23.5 56.05 34.25 53.25 55.7 47.65 74.5 47.25 91.3 46.9 114.2 52.6 135.15 57.8 136.5 60.75
L 137.8 58.9
Q 139.2 56.6 139.5 54.25 139.9 51.15 137.85 35.55 Z"/>
</g>

<g id="djflex_svg_Layer_1__Clip_Group__2_0_Layer2_0_MEMBER_0_FILL">
<path fill="#D22B0D" stroke="none" d="
M 137.85 35.55
Q 135.75 19.65 134.5 18.75 132.25 17.45 128.45 15.8 120.75 12.5 112.75 10.75 104.15 8.85 95.8 8.65 85.3 8.35 69.5 10.25 58 11.6 45.4 15.55 35.2 18.75 27.15 22.6 19.25 26.45 17.1 29 16 30.25 16.5 30.75
L 16.35 32.8
Q 16.15 35.45 15.75 38.35 14.25 50.8 14.1 55.75 14.05 57.05 15.1 57.95 15.7 58.4 16.5 58.75 23.5 56.05 34.25 53.25 55.75 47.7 74.5 47.25 91.3 46.9 114.2 52.6 135.15 57.8 136.5 60.75
L 137.8 58.9
Q 139.2 56.6 139.5 54.25 139.9 51.15 137.85 35.55 Z"/>
</g>

<g id="djflex_svg_Layer_1__Clip_Group__2_0_Layer2_0_MEMBER_1_FILL">
<path fill="#455B81" stroke="none" d="
M 44.65 48.8
L 42.5 45.75 0 6.75 0 60.75
Q 16 62.95 30.7 63.75 60.05 65.45 53.5 58.75 47.9 53.05 44.65 48.8 Z"/>
</g>

<g id="djflex_svg_Layer_1__Clip_Group__2_0_Layer2_0_MEMBER_2_FILL">
<path fill="#5E051E" stroke="none" d="
M 139.5 44.25
Q 139.9 41.15 137.85 25.55 135.75 9.65 134.5 8.75 132 7.8 127.9 6.7 119.65 4.45 111.5 3.5 98.65 1.3 92.25 0.55 81.4 -0.7 67.25 1 55.75 2.35 44.3 5.9 35.15 8.75 27.15 12.6 19.25 16.45 17.1 19 16 20.25 16.5 20.75 16.35 23.7 15.75 28.35 15.65 29 12.9 44.35 10.8 56.05 11.5 56.75 18.25 53.2 29.75 49.65 52.75 42.45 76.5 42.25 97.8 42.1 119.7 47.95 128.05 50.2 133.95 52.65 139.4 54.95 140 56.25 139 48 139.5 44.25 Z"/>
</g>

<g id="djflex_svg_Layer_1__Clip_Group__2_0_Layer2_0_MEMBER_3_FILL">
<path fill="#161C39" stroke="none" d="
M 47 6.75
L 41.65 6.75
Q 33.9 9.35 27.15 12.6 19.25 16.45 17.1 19 16 20.25 16.5 20.75 16.35 23.7 15.75 28.35 15.65 29 12.9 44.35 10.8 56.05 11.5 56.75 14.55 55.15 20 53.05 30.95 48.8 43.15 46.1 43.25 32.2 45.15 18.1 46.1 11.05 47 6.75 Z"/>
</g>

<g id="Layer0_0_MEMBER_1_MEMBER_1_FILL">
<path fill="#FFFFFF" stroke="none" d="
M 40.4 83.95
L 37.05 79.8 35.25 74.05 32.75 81.25 28.55 88.2 34.7 84.95 40.4 83.95 Z"/>
</g>
</defs>

<mask id="Mask_Mask_1">
<g transform="matrix( 1, 0, 0, 1, 0,6) ">
<use xlink:href="#Mask_3_MASK_0_FILL"/>
</g>
</mask>

<g mask="url(#Mask_Mask_1)">
<g transform="matrix( 0.84063720703125, 0, 0, 0.84063720703125, -6.55,-10.65) ">
<g transform="matrix( 1, 0, 0, 1, 0,0) ">
<use xlink:href="#Symbol_39_0_Layer23_0_FILL"/>
</g>
</g>
</g>

<g transform="matrix( 1, 0, 0, 1, 0,1) ">
<use xlink:href="#Layer1_0_FILL"/>
</g>

<g transform="matrix( 0.8399810791015625, 0, 0, 0.8399810791015625, 11.5,-1.3) ">
<mask id="Mask_Mask_2">
<g transform="matrix( 1, 0, 0, 1, 0,0) ">
<use xlink:href="#Mask_djflex_svg_Layer_1__Clip_Group__1_0_2_MASK_0_FILL"/>
</g>
</mask>

<g mask="url(#Mask_Mask_2)">
<g transform="matrix( 1, 0, 0, 1, 0,0) ">
<use xlink:href="#djflex_svg_Layer_1__Clip_Group__1_0_Layer2_0_MEMBER_0_FILL"/>
</g>

<g transform="matrix( 1, 0, 0, 1, 0,0) ">
<use xlink:href="#djflex_svg_Layer_1__Clip_Group__1_0_Layer2_0_MEMBER_1_FILL"/>
</g>

<g transform="matrix( 1, 0, 0, 1, 0,0) ">
<use xlink:href="#djflex_svg_Layer_1__Clip_Group__1_0_Layer2_0_MEMBER_2_FILL"/>
</g>

<g transform="matrix( 1, 0, 0, 1, 0,0) ">
<use xlink:href="#djflex_svg_Layer_1__Clip_Group__1_0_Layer2_0_MEMBER_3_FILL"/>
</g>
</g>
</g>

<g transform="matrix( 0.8399810791015625, 0, 0, 0.8399810791015625, -1.9,27) ">
<mask id="Mask_Mask_3">
<g transform="matrix( 1, 0, 0, 1, 0,0) ">
<use xlink:href="#Mask_djflex_svg_Layer_1__Clip_Group__2_0_2_MASK_0_FILL"/>
</g>
</mask>

<g mask="url(#Mask_Mask_3)">
<g transform="matrix( 1, 0, 0, 1, 0,0) ">
<use xlink:href="#djflex_svg_Layer_1__Clip_Group__2_0_Layer2_0_MEMBER_0_FILL"/>
</g>

<g transform="matrix( 1, 0, 0, 1, 0,0) ">
<use xlink:href="#djflex_svg_Layer_1__Clip_Group__2_0_Layer2_0_MEMBER_1_FILL"/>
</g>

<g transform="matrix( 1, 0, 0, 1, 0,0) ">
<use xlink:href="#djflex_svg_Layer_1__Clip_Group__2_0_Layer2_0_MEMBER_2_FILL"/>
</g>

<g transform="matrix( 1, 0, 0, 1, 0,0) ">
<use xlink:href="#djflex_svg_Layer_1__Clip_Group__2_0_Layer2_0_MEMBER_3_FILL"/>
</g>
</g>
</g>

<g transform="matrix( 0.8399810791015625, 0, 0, 0.8399810791015625, -6.55,-10.55) ">
<use xlink:href="#Layer0_0_MEMBER_1_MEMBER_1_FILL"/>
</g>
</svg>
