<?xml version="1.0" encoding="UTF-8"?>
<svg id="Camada_1" data-name="Camada 1" xmlns="http://www.w3.org/2000/svg" viewBox="0 0 359.61 77.51">
  <defs>
    <style>
      .cls-1 {
        fill: #40a856;
      }

      .cls-2 {
        fill: #b6d1d9;
      }
    </style>
  </defs>
  <g id="text_0_Layer1_0_FILL" data-name="text 0 Layer1 0 FILL">
    <path class="cls-2" d="m95.32,35.43c-1.95-.97-4.16-1.46-6.64-1.46-2.67,0-5.24.47-7.72,1.41-2.45.94-4.74,2.24-6.87,3.91-2.13,1.63-4,3.51-5.6,5.65-1.57,2.17-2.79,4.5-3.67,7.01-.88,2.51-1.32,5.05-1.32,7.63,0,2.32.33,4.55.99,6.68.69,2.13,1.71,4.03,3.06,5.7,1.35,1.66,3,2.98,4.94,3.95,1.98.94,4.24,1.41,6.78,1.41s5.13-.46,7.58-1.36c2.48-.91,4.79-2.2,6.92-3.86,2.1-1.63,3.94-3.53,5.51-5.7,1.57-2.2,2.79-4.52,3.67-6.97.88-2.48,1.32-5,1.32-7.58,0-2.32-.33-4.55-.99-6.68-.66-2.13-1.66-4.05-3.01-5.74-1.35-1.66-3-3-4.94-4m-8.43,5.98c2.01,0,3.67.5,4.99,1.51,1.32,1.04,2.31,2.38,2.97,4.05s.99,3.5.99,5.51-.35,3.99-1.04,6.02c-.72,2.1-1.76,4.02-3.11,5.74-1.35,1.73-2.93,3.11-4.75,4.14-1.82,1.07-3.83,1.6-6.02,1.6-2.04,0-3.72-.5-5.04-1.51-1.32-1.04-2.31-2.4-2.97-4.09-.66-1.66-.99-3.48-.99-5.46,0-2.01.36-4.05,1.08-6.12.75-2.07,1.79-3.97,3.11-5.7,1.32-1.73,2.9-3.11,4.75-4.14,1.82-1.04,3.83-1.55,6.02-1.55m-23.39-7.15h-9.04l-18.17,33.28-1.98-13.65,11.01-19.49h-7.72l-7.39,14.12-1.46-14.12h-7.67l2.68,19.49-7.72,13.65-4.09-33.28H2.97l7.34,42.79h6.92l10.73-17.93,3.06,17.93h6.97l25.51-42.79m129.67,0h-9.27l-20.8,20.38,4.33-20.29h-8.24l-9.08,42.69h8.24l2.73-12.76,6.21-5.74,8.38,18.5h9.37l-11.44-23.82,19.58-18.97m-51.87,1.69c-1.54-1.13-3.39-1.69-5.55-1.69h-18.07l-9.08,42.79h8.24l3.01-14.31h7.39l5.08,14.31h9.41l-5.79-16.1c1.44-.6,2.78-1.41,4-2.45s2.31-2.23,3.25-3.58c.91-1.32,1.62-2.73,2.12-4.24.5-1.51.75-3.04.75-4.61,0-2.01-.41-3.91-1.22-5.7-.85-1.82-2.02-3.29-3.53-4.42m-16.94,5.6h9.27c.72,0,1.38.24,1.98.71.6.47,1.05,1.1,1.37,1.88.38.82.56,1.74.56,2.78,0,1.13-.19,2.21-.56,3.25-.38,1-.88,1.9-1.51,2.68-.63.78-1.32,1.41-2.07,1.88-.75.47-1.55.71-2.4.71h-9.55l2.92-13.89m149.26-7.3h-8.24l-3.67,17.32h-17.89l3.67-17.32h-8.24l-9.08,42.79h8.24l3.86-18.26h17.84l-3.86,18.26h8.28l9.08-42.79m-53.89.38c-1.63-.44-3.39-.66-5.27-.66-2.38,0-4.66.36-6.82,1.08-2.17.66-4.09,1.68-5.79,3.06-1.73,1.35-3.08,3-4.05,4.94-1,1.98-1.51,4.2-1.51,6.68,0,1.6.36,2.98,1.08,4.14.69,1.13,1.71,2.1,3.06,2.92,1.38.82,3.09,1.54,5.13,2.17,1.76.56,3.31,1.1,4.66,1.6,1.38.5,2.46,1.07,3.25,1.69.78.66,1.18,1.52,1.18,2.59s-.27,1.98-.8,2.73c-.5.78-1.3,1.4-2.4,1.84-1.07.41-2.4.61-4,.61s-3.04-.19-4.42-.56c-1.41-.41-2.68-.89-3.81-1.46-1.13-.6-2.06-1.19-2.78-1.79-.72-.56-1.21-1.04-1.46-1.41l-5.18,7.2c1.98,1.73,4.38,3.08,7.2,4.05,2.79.97,5.7,1.46,8.71,1.46,2.32,0,4.57-.28,6.73-.85,2.17-.6,4.11-1.49,5.84-2.68,1.73-1.22,3.09-2.79,4.09-4.71,1.04-1.91,1.55-4.22,1.55-6.92,0-1.98-.46-3.61-1.37-4.9-.88-1.26-2.1-2.29-3.67-3.11-1.6-.85-3.45-1.58-5.55-2.21-1.69-.5-3.14-.97-4.33-1.41-1.16-.41-2.06-.91-2.68-1.51-.63-.63-.94-1.38-.94-2.26,0-1.16.27-2.15.8-2.97.53-.85,1.35-1.52,2.45-2.02,1.1-.5,2.43-.75,4-.75,1.22,0,2.4.19,3.53.56,1.1.31,2.12.71,3.06,1.18.94.41,1.69.86,2.26,1.36.63.5.99.88,1.08,1.13l5.13-6.73c-1-.85-2.18-1.63-3.53-2.35-1.32-.72-2.79-1.3-4.42-1.74m90,.8c-1.95-.97-4.16-1.46-6.64-1.46-2.67,0-5.24.47-7.72,1.41-2.45.94-4.74,2.24-6.87,3.91-2.13,1.63-4,3.51-5.6,5.65-1.57,2.17-2.79,4.5-3.67,7.01-.88,2.51-1.32,5.05-1.32,7.63,0,2.32.33,4.55.99,6.68.69,2.13,1.71,4.03,3.06,5.7,1.35,1.66,3,2.98,4.94,3.95,1.98.94,4.24,1.41,6.78,1.41s5.13-.46,7.58-1.36c2.48-.91,4.79-2.2,6.92-3.86,2.1-1.63,3.94-3.53,5.51-5.7,1.57-2.2,2.79-4.52,3.67-6.97.88-2.48,1.32-5,1.32-7.58,0-2.32-.33-4.55-.99-6.68-.66-2.13-1.66-4.05-3.01-5.74-1.35-1.66-3-3-4.94-4m-14.45,7.53c1.82-1.04,3.83-1.55,6.02-1.55,2.01,0,3.67.5,4.99,1.51,1.32,1.04,2.31,2.38,2.97,4.05s.99,3.5.99,5.51c0,1.98-.35,3.99-1.04,6.02-.72,2.1-1.76,4.02-3.11,5.74-1.35,1.73-2.93,3.11-4.75,4.14-1.82,1.07-3.83,1.6-6.02,1.6-2.04,0-3.72-.5-5.04-1.51-1.32-1.04-2.31-2.4-2.97-4.09-.66-1.66-.99-3.48-.99-5.46s.36-4.05,1.08-6.12c.75-2.07,1.79-3.97,3.11-5.7,1.32-1.73,2.9-3.11,4.75-4.14m59.64,14.45c1.47-1.63,2.62-3.44,3.44-5.41.85-1.98,1.27-3.95,1.27-5.93s-.39-3.91-1.18-5.7c-.82-1.82-1.99-3.29-3.53-4.42-1.57-1.13-3.44-1.69-5.6-1.69h-17.23l-9.08,42.79h8.24l3.01-14.31h9.37c2.13,0,4.19-.5,6.17-1.51,1.95-.94,3.66-2.21,5.13-3.81m-4.33-13.46c.38.78.56,1.71.56,2.78,0,1.26-.19,2.4-.56,3.44-.35,1.07-.83,1.99-1.46,2.78-.63.78-1.33,1.38-2.12,1.79-.78.47-1.6.71-2.45.71h-8.71l2.92-13.89h8.47c.72,0,1.37.2,1.93.61.63.41,1.1,1,1.41,1.79Z"/>
  </g>
  <g id="text_0_Layer1_1_FILL" data-name="text 0 Layer1 1 FILL">
    <path class="cls-2" d="m153.83,9.73c0-1.27-.25-2.47-.74-3.6-.52-1.15-1.26-2.08-2.23-2.8-.99-.71-2.17-1.07-3.54-1.07h-10.89l-5.74,27.05h5.21l1.9-9.05h5.92c1.35,0,2.65-.32,3.9-.95,1.23-.6,2.31-1.4,3.24-2.41.93-1.03,1.66-2.17,2.17-3.42.54-1.25.8-2.5.8-3.75m-13.18-2.86h5.36c.46,0,.86.13,1.22.39.4.26.69.63.89,1.13.24.5.36,1.08.36,1.76,0,.79-.12,1.52-.36,2.17-.22.67-.53,1.26-.92,1.76s-.84.87-1.34,1.13c-.5.3-1.01.45-1.55.45h-5.51l1.84-8.78m36.75,0l1.01-4.61h-17.32l-5.74,27.05h5.21l2.41-11.19h9.97l.92-4.26h-10l1.46-6.99h12.08m31.13,3.42h4.34l1.79-8.54h-4.34l-1.79,8.54m-6.67.57c.44-1.01.65-2.03.65-3.06,0-.95-.18-1.84-.54-2.65-.34-.85-.84-1.55-1.52-2.08s-1.52-.8-2.53-.8h-13.87l-5.74,27.05h12.41c1.33,0,2.59-.19,3.78-.57,1.19-.36,2.27-.89,3.24-1.61.95-.71,1.71-1.6,2.26-2.65.54-1.07.8-2.3.8-3.69,0-1.31-.31-2.43-.92-3.36-.61-.95-1.49-1.62-2.62-1.99,1.09-.46,2.02-1.08,2.8-1.87.77-.79,1.37-1.7,1.79-2.71m-13.54-4.08h6.64c.67,0,1.19.23,1.55.68.38.46.57,1.08.57,1.87,0,.63-.11,1.22-.33,1.76-.22.52-.51.96-.86,1.34-.36.36-.75.63-1.19.83-.46.2-.91.3-1.37.3h-6.43l1.43-6.78m5.12,10.95c.46,0,.85.13,1.19.39.34.24.59.58.74,1.01.18.42.27.89.27,1.43,0,.58-.11,1.12-.33,1.64-.24.54-.54,1-.89,1.4-.38.42-.8.72-1.28.92-.5.22-.98.33-1.46.33h-7.2l1.49-7.11h7.47m30.95-7.44c0-.73.17-1.36.51-1.87.34-.54.85-.96,1.55-1.28s1.54-.48,2.53-.48c.77,0,1.52.12,2.23.36.69.2,1.34.45,1.93.74.6.26,1.07.55,1.43.86.4.32.62.56.68.71l3.24-4.26c-.63-.54-1.38-1.03-2.23-1.49-.83-.46-1.77-.82-2.8-1.1-1.03-.28-2.14-.42-3.33-.42-1.51,0-2.95.23-4.31.68-1.37.42-2.59,1.06-3.66,1.93-1.09.85-1.94,1.89-2.56,3.12-.63,1.25-.95,2.66-.95,4.23,0,1.01.23,1.88.68,2.62.44.71,1.08,1.33,1.93,1.84.87.52,1.95.97,3.24,1.37,1.11.36,2.09.69,2.95,1.01.87.32,1.56.67,2.05,1.07.5.42.74.96.74,1.64s-.17,1.25-.51,1.73c-.32.5-.82.88-1.52,1.16-.67.26-1.52.39-2.53.39s-1.92-.12-2.8-.36c-.89-.26-1.7-.57-2.41-.92-.71-.38-1.3-.75-1.76-1.13-.46-.36-.76-.65-.92-.89l-3.27,4.55c1.25,1.09,2.77,1.94,4.55,2.56,1.77.61,3.6.92,5.51.92,1.47,0,2.89-.18,4.26-.54,1.37-.38,2.6-.94,3.69-1.7,1.09-.77,1.95-1.77,2.59-2.98.65-1.21.98-2.67.98-4.37,0-1.25-.29-2.28-.86-3.09-.56-.79-1.33-1.45-2.32-1.96-1.01-.54-2.18-1-3.51-1.4-1.07-.32-1.98-.61-2.74-.89-.73-.26-1.3-.58-1.7-.95-.4-.4-.6-.87-.6-1.43Z"/>
  </g>
  <g id="text_0_Layer0_0_FILL" data-name="text 0 Layer0 0 FILL">
    <path d="m60.53,31.66h-9.04l-18.17,33.28-1.98-13.65,11.01-19.49h-7.72l-7.39,14.12-1.46-14.12h-7.67l2.68,19.49-7.72,13.65-4.09-33.28H0l7.34,42.79h6.92l10.73-17.93,3.06,17.93h6.97l25.51-42.79m17.46,1.13c-2.45.94-4.74,2.24-6.87,3.91-2.13,1.63-4,3.51-5.6,5.65-1.57,2.17-2.79,4.5-3.67,7.01-.88,2.51-1.32,5.05-1.32,7.63,0,2.32.33,4.55.99,6.68.69,2.13,1.71,4.03,3.06,5.7,1.35,1.66,3,2.98,4.94,3.95,1.98.94,4.24,1.41,6.78,1.41s5.13-.46,7.58-1.36c2.48-.91,4.79-2.2,6.92-3.86,2.1-1.63,3.94-3.53,5.51-5.7,1.57-2.2,2.79-4.52,3.67-6.97.88-2.48,1.32-5,1.32-7.58,0-2.32-.33-4.55-.99-6.68-.66-2.13-1.66-4.05-3.01-5.74-1.35-1.66-3-3-4.94-4-1.95-.97-4.16-1.46-6.64-1.46-2.67,0-5.24.47-7.72,1.41m10.92,7.53c1.32,1.04,2.31,2.38,2.97,4.05s.99,3.5.99,5.51-.35,3.99-1.04,6.02c-.72,2.1-1.76,4.02-3.11,5.74-1.35,1.73-2.93,3.11-4.75,4.14-1.82,1.07-3.83,1.6-6.02,1.6-2.04,0-3.72-.5-5.04-1.51-1.32-1.04-2.31-2.4-2.97-4.09-.66-1.66-.99-3.48-.99-5.46,0-2.01.36-4.05,1.08-6.12.75-2.07,1.79-3.97,3.11-5.7,1.32-1.73,2.9-3.11,4.75-4.14,1.82-1.04,3.83-1.55,6.02-1.55,2.01,0,3.67.5,4.99,1.51m101.29-8.66h-9.27l-20.8,20.38,4.33-20.29h-8.24l-9.08,42.69h8.24l2.73-12.76,6.21-5.74,8.38,18.5h9.37l-11.44-23.82,19.58-18.97m-51.87,1.69c-1.54-1.13-3.39-1.69-5.55-1.69h-18.07l-9.08,42.79h8.24l3.01-14.31h7.39l5.08,14.31h9.41l-5.79-16.1c1.44-.6,2.78-1.41,4-2.45s2.31-2.23,3.25-3.58c.91-1.32,1.62-2.73,2.12-4.24.5-1.51.75-3.04.75-4.61,0-2.01-.41-3.91-1.22-5.7-.85-1.82-2.02-3.29-3.53-4.42m-19.86,19.49l2.92-13.89h9.27c.72,0,1.38.24,1.98.71.6.47,1.05,1.1,1.36,1.88.38.82.56,1.74.56,2.78,0,1.13-.19,2.21-.56,3.25-.38,1-.88,1.9-1.51,2.68-.63.78-1.32,1.41-2.07,1.88-.75.47-1.55.71-2.4.71h-9.55m152.17-21.18h-8.24l-3.67,17.32h-17.89l3.67-17.32h-8.24l-9.08,42.79h8.24l3.86-18.26h17.84l-3.86,18.26h8.28l9.08-42.79m-45.94,4.47c-1-.85-2.18-1.63-3.53-2.35-1.32-.72-2.79-1.3-4.42-1.74-1.63-.44-3.39-.66-5.27-.66-2.38,0-4.66.36-6.82,1.08-2.17.66-4.09,1.68-5.79,3.06-1.73,1.35-3.08,3-4.05,4.94-1,1.98-1.51,4.2-1.51,6.68,0,1.6.36,2.98,1.08,4.14.69,1.13,1.71,2.1,3.06,2.92,1.38.82,3.09,1.54,5.13,2.17,1.76.56,3.31,1.1,4.66,1.6,1.38.5,2.46,1.07,3.25,1.69.78.66,1.18,1.52,1.18,2.59s-.27,1.98-.8,2.73c-.5.78-1.3,1.4-2.4,1.84-1.07.41-2.4.61-4,.61s-3.04-.19-4.42-.56c-1.41-.41-2.68-.89-3.81-1.46-1.13-.6-2.06-1.19-2.78-1.79-.72-.56-1.21-1.04-1.46-1.41l-5.18,7.2c1.98,1.73,4.38,3.08,7.2,4.05,2.79.97,5.7,1.46,8.71,1.46,2.32,0,4.57-.28,6.73-.85,2.17-.6,4.11-1.49,5.84-2.68,1.73-1.22,3.09-2.79,4.09-4.71,1.04-1.91,1.55-4.22,1.55-6.92,0-1.98-.46-3.61-1.37-4.9-.88-1.26-2.1-2.29-3.67-3.11-1.6-.85-3.45-1.58-5.55-2.21-1.69-.5-3.14-.97-4.33-1.41-1.16-.41-2.06-.91-2.68-1.51-.63-.63-.94-1.38-.94-2.26,0-1.16.27-2.15.8-2.97.53-.85,1.35-1.52,2.45-2.02,1.1-.5,2.43-.75,4-.75,1.22,0,2.4.19,3.53.56,1.1.31,2.12.71,3.06,1.18.94.41,1.69.86,2.26,1.36.63.5.99.88,1.08,1.13l5.13-6.73m86.98.71c-1.35-1.66-3-3-4.94-4-1.95-.97-4.16-1.46-6.64-1.46-2.67,0-5.24.47-7.72,1.41-2.45.94-4.74,2.24-6.87,3.91-2.13,1.63-4,3.51-5.6,5.65-1.57,2.17-2.79,4.5-3.67,7.01-.88,2.51-1.32,5.05-1.32,7.63,0,2.32.33,4.55.99,6.68.69,2.13,1.71,4.03,3.06,5.7,1.35,1.66,3,2.98,4.94,3.95,1.98.94,4.24,1.41,6.78,1.41s5.13-.46,7.58-1.36c2.48-.91,4.79-2.2,6.92-3.86,2.1-1.63,3.94-3.53,5.51-5.7,1.57-2.2,2.79-4.52,3.67-6.97.88-2.48,1.32-5,1.32-7.58,0-2.32-.33-4.55-.99-6.68-.66-2.13-1.66-4.05-3.01-5.74m-13.37,1.98c2.01,0,3.67.5,4.99,1.51,1.32,1.04,2.31,2.38,2.97,4.05s.99,3.5.99,5.51c0,1.98-.35,3.99-1.04,6.02-.72,2.1-1.76,4.02-3.11,5.74-1.35,1.73-2.93,3.11-4.75,4.14-1.82,1.07-3.83,1.6-6.02,1.6-2.04,0-3.72-.5-5.04-1.51-1.32-1.04-2.31-2.4-2.97-4.09-.66-1.66-.99-3.48-.99-5.46s.36-4.05,1.08-6.12c.75-2.07,1.79-3.97,3.11-5.7,1.32-1.73,2.9-3.11,4.75-4.14,1.82-1.04,3.83-1.55,6.02-1.55m57.05,10.59c.85-1.98,1.27-3.95,1.27-5.93s-.39-3.91-1.18-5.7c-.82-1.82-1.99-3.29-3.53-4.42-1.57-1.13-3.44-1.69-5.6-1.69h-17.23l-9.08,42.79h8.24l3.01-14.31h9.37c2.13,0,4.19-.5,6.17-1.51,1.95-.94,3.66-2.21,5.13-3.81,1.47-1.63,2.62-3.44,3.44-5.41m-7.2-5.27c0,1.26-.19,2.4-.56,3.44-.35,1.07-.83,1.99-1.46,2.78-.63.78-1.33,1.38-2.12,1.79-.78.47-1.6.71-2.45.71h-8.71l2.92-13.89h8.47c.72,0,1.37.2,1.93.61.63.41,1.1,1,1.41,1.79.38.78.56,1.71.56,2.78Z"/>
  </g>
  <g id="text_0_Layer0_1_FILL" data-name="text 0 Layer0 1 FILL">
    <path class="cls-1" d="m151.01,4.37c-.52-1.15-1.26-2.08-2.23-2.8-.99-.71-2.17-1.07-3.54-1.07h-10.89l-5.74,27.05h5.21l1.9-9.05h5.92c1.35,0,2.65-.32,3.9-.95,1.23-.6,2.31-1.4,3.24-2.41.93-1.03,1.66-2.17,2.17-3.42.54-1.25.8-2.5.8-3.75s-.25-2.47-.74-3.6m-12.44.74h5.36c.46,0,.86.13,1.22.39.4.26.69.63.89,1.13.24.5.36,1.08.36,1.76,0,.79-.12,1.52-.36,2.17-.22.67-.53,1.26-.92,1.76s-.84.87-1.34,1.13c-.5.3-1.01.45-1.55.45h-5.51l1.84-8.78m36.75,0l1.01-4.61h-17.32l-5.74,27.05h5.21l2.41-11.19h9.97l.92-4.26h-10l1.46-6.99h12.08m25.11.92c0-.95-.18-1.84-.54-2.65-.34-.85-.84-1.55-1.52-2.08-.67-.54-1.52-.8-2.53-.8h-13.87l-5.74,27.05h12.41c1.33,0,2.59-.19,3.78-.57,1.19-.36,2.27-.89,3.24-1.61.95-.71,1.71-1.6,2.26-2.65.54-1.07.8-2.3.8-3.69,0-1.31-.31-2.43-.92-3.36-.61-.95-1.49-1.62-2.62-1.99,1.09-.46,2.02-1.08,2.8-1.87.77-.79,1.37-1.7,1.79-2.71.44-1.01.65-2.03.65-3.06m-15.62,5.77l1.43-6.78h6.64c.67,0,1.19.23,1.55.68.38.46.57,1.08.57,1.87,0,.63-.11,1.22-.33,1.76-.22.52-.51.96-.86,1.34-.36.36-.75.63-1.19.83-.46.2-.91.3-1.37.3h-6.43m8.48,5.56c.18.42.27.89.27,1.43,0,.58-.11,1.12-.33,1.64-.24.54-.54,1-.89,1.4-.38.42-.8.72-1.28.92-.5.22-.98.33-1.46.33h-7.2l1.49-7.11h7.47c.46,0,.85.13,1.19.39.34.24.59.58.74,1.01Z"/>
    <path d="m206.45,8.54h4.34l1.79-8.54h-4.34l-1.79,8.54m27.73-6.7c-.83-.46-1.77-.82-2.8-1.1-1.03-.28-2.14-.42-3.33-.42-1.51,0-2.95.23-4.31.68-1.37.42-2.59,1.06-3.66,1.93-1.09.85-1.94,1.89-2.56,3.12-.63,1.25-.95,2.66-.95,4.23,0,1.01.23,1.88.68,2.62.44.71,1.08,1.33,1.93,1.84.87.52,1.95.97,3.24,1.37,1.11.36,2.09.69,2.95,1.01.87.32,1.56.67,2.05,1.07.5.42.74.96.74,1.64s-.17,1.25-.51,1.73c-.32.5-.82.88-1.52,1.16-.67.26-1.52.39-2.53.39s-1.92-.12-2.8-.36c-.89-.26-1.7-.57-2.41-.92-.71-.38-1.3-.75-1.76-1.13-.46-.36-.76-.65-.92-.89l-3.27,4.55c1.25,1.09,2.77,1.94,4.55,2.56,1.77.61,3.6.92,5.51.92,1.47,0,2.89-.18,4.26-.54,1.37-.38,2.6-.94,3.69-1.7,1.09-.77,1.95-1.77,2.59-2.98.65-1.21.98-2.67.98-4.37,0-1.25-.29-2.28-.86-3.09-.56-.79-1.33-1.45-2.32-1.96-1.01-.54-2.18-1-3.51-1.4-1.07-.32-1.98-.61-2.74-.89-.73-.26-1.3-.58-1.7-.95-.4-.4-.6-.87-.6-1.43,0-.73.17-1.36.51-1.87.34-.54.85-.96,1.55-1.28.69-.32,1.54-.48,2.53-.48.77,0,1.52.12,2.23.36.69.2,1.34.45,1.93.74.6.26,1.07.55,1.43.86.4.32.62.56.68.71l3.24-4.26c-.63-.54-1.38-1.03-2.23-1.49Z"/>
  </g>
</svg>