<?xml version="1.0" encoding="utf-8"?>
<!-- Generator: Adobe Illustrator 27.6.1, SVG Export Plug-In . SVG Version: 6.00 Build 0)  -->
<svg version="1.1" id="Camada_1" xmlns="http://www.w3.org/2000/svg" xmlns:xlink="http://www.w3.org/1999/xlink" x="0px" y="0px"
	 viewBox="0 0 370 80" style="enable-background:new 0 0 370 80;" xml:space="preserve">
<style type="text/css">
	.st0{fill:#FFFFFF;}
	.st1{fill:#40A856;}
</style>
<g transform="matrix( 0.68975830078125, 0, 0, 0.68975830078125, 189.4,-19.6) ">
	<g transform="matrix( 1.3647918701171875, 0, 0, 1.3647918701171875, -420.2,-51.9) ">
		<g>
			<g id="text_0_Layer1_0_FILL">
				<path d="M214,98.3c-2.1-1-4.4-1.6-7.1-1.6c-2.8,0-5.6,0.5-8.2,1.5c-2.6,1-5,2.4-7.3,4.2c-2.3,1.7-4.2,3.7-5.9,6
					c-1.7,2.3-3,4.8-3.9,7.4c-0.9,2.7-1.4,5.4-1.4,8.1c0,2.5,0.4,4.8,1.1,7.1c0.7,2.3,1.8,4.3,3.2,6.1c1.4,1.8,3.2,3.2,5.2,4.2
					c2.1,1,4.5,1.5,7.2,1.5c2.8,0,5.5-0.5,8.1-1.4c2.6-1,5.1-2.3,7.4-4.1c2.2-1.7,4.2-3.8,5.8-6.1c1.7-2.3,3-4.8,3.9-7.4
					c0.9-2.6,1.4-5.3,1.4-8.1c0-2.5-0.3-4.8-1.1-7.1c-0.7-2.3-1.8-4.3-3.2-6.1C217.8,100.8,216.1,99.4,214,98.3 M205,104.7
					c2.1,0,3.9,0.5,5.3,1.6c1.4,1.1,2.4,2.5,3.1,4.3s1.1,3.7,1.1,5.8c0,2.1-0.4,4.2-1.1,6.4c-0.8,2.2-1.9,4.3-3.3,6.1
					c-1.4,1.8-3.1,3.3-5,4.4c-1.9,1.1-4.1,1.7-6.4,1.7c-2.2,0-3.9-0.5-5.3-1.6c-1.4-1.1-2.5-2.6-3.2-4.3c-0.7-1.8-1.1-3.7-1.1-5.8
					c0-2.1,0.4-4.3,1.2-6.5c0.8-2.2,1.9-4.2,3.3-6.1c1.4-1.8,3.1-3.3,5-4.4C200.6,105.2,202.7,104.7,205,104.7 M180.2,97.1h-9.6
					l-19.3,35.4l-2.1-14.5l11.7-20.7h-8.2l-7.9,15l-1.6-15h-8.2l2.9,20.7l-8.2,14.5l-4.4-35.4h-9.5l7.8,45.5h7.4l11.4-19.1l3.2,19.1
					h7.4L180.2,97.1 M317.9,97.1h-9.9L286,118.7l4.6-21.6h-8.8l-9.6,45.4h8.8l2.9-13.6l6.6-6.1l8.9,19.7h9.9l-12.1-25.3L317.9,97.1
					 M262.8,98.9c-1.6-1.2-3.6-1.8-5.9-1.8h-19.2l-9.6,45.5h8.8l3.2-15.2h7.8l5.4,15.2h10l-6.2-17.1c1.5-0.6,3-1.5,4.3-2.6
					c1.3-1.1,2.5-2.4,3.5-3.8c1-1.4,1.7-2.9,2.2-4.5c0.5-1.6,0.8-3.2,0.8-4.9c0-2.1-0.4-4.1-1.3-6.1
					C265.7,101.6,264.4,100.1,262.8,98.9 M244.8,104.8h9.8c0.8,0,1.5,0.3,2.1,0.8c0.6,0.5,1.1,1.2,1.5,2c0.4,0.9,0.6,1.8,0.6,2.9
					c0,1.2-0.2,2.3-0.6,3.4c-0.4,1.1-0.9,2-1.6,2.9c-0.7,0.8-1.4,1.5-2.2,2c-0.8,0.5-1.6,0.8-2.6,0.8h-10.1L244.8,104.8 M403.4,97.1
					h-8.8l-3.9,18.4h-19l3.9-18.4h-8.8l-9.6,45.5h8.8l4.1-19.4H389l-4.1,19.4h8.8L403.4,97.1 M346.1,97.5c-1.7-0.5-3.6-0.7-5.6-0.7
					c-2.5,0-4.9,0.4-7.2,1.2c-2.3,0.7-4.4,1.8-6.1,3.2c-1.8,1.4-3.3,3.2-4.3,5.3c-1.1,2.1-1.6,4.5-1.6,7.1c0,1.7,0.4,3.2,1.1,4.4
					c0.7,1.2,1.8,2.2,3.2,3.1c1.5,0.9,3.3,1.6,5.5,2.3c1.9,0.6,3.5,1.2,4.9,1.7c1.5,0.5,2.6,1.1,3.5,1.8c0.8,0.7,1.2,1.6,1.2,2.8
					s-0.3,2.1-0.9,2.9c-0.5,0.8-1.4,1.5-2.5,1.9c-1.1,0.4-2.5,0.7-4.2,0.7c-1.7,0-3.2-0.2-4.7-0.6c-1.5-0.4-2.8-0.9-4-1.6
					c-1.2-0.6-2.2-1.3-3-1.9c-0.8-0.6-1.3-1.1-1.5-1.5l-5.5,7.6c2.1,1.8,4.6,3.3,7.6,4.3c3,1,6.1,1.6,9.2,1.6c2.5,0,4.9-0.3,7.1-0.9
					c2.3-0.6,4.4-1.6,6.2-2.9c1.8-1.3,3.3-3,4.4-5c1.1-2,1.7-4.5,1.7-7.4c0-2.1-0.5-3.8-1.5-5.2c-0.9-1.3-2.2-2.4-3.9-3.3
					c-1.7-0.9-3.7-1.7-5.9-2.3c-1.8-0.5-3.3-1-4.6-1.5c-1.2-0.4-2.2-1-2.9-1.6c-0.7-0.7-1-1.5-1-2.4c0-1.2,0.3-2.3,0.9-3.2
					c0.6-0.9,1.4-1.6,2.6-2.2c1.2-0.5,2.6-0.8,4.2-0.8c1.3,0,2.5,0.2,3.8,0.6c1.2,0.3,2.2,0.8,3.2,1.2c1,0.4,1.8,0.9,2.4,1.4
					c0.7,0.5,1.1,0.9,1.1,1.2l5.5-7.2c-1.1-0.9-2.3-1.7-3.8-2.5C349.4,98.5,347.9,97.9,346.1,97.5 M441.8,98.3
					c-2.1-1-4.4-1.6-7.1-1.6c-2.8,0-5.6,0.5-8.2,1.5c-2.6,1-5,2.4-7.3,4.2c-2.3,1.7-4.3,3.7-6,6c-1.7,2.3-3,4.8-3.9,7.4
					c-0.9,2.7-1.4,5.4-1.4,8.1c0,2.5,0.4,4.8,1,7.1c0.7,2.3,1.8,4.3,3.2,6.1c1.4,1.8,3.2,3.2,5.2,4.2c2.1,1,4.5,1.5,7.2,1.5
					c2.8,0,5.4-0.5,8-1.4c2.6-1,5.1-2.3,7.4-4.1c2.2-1.7,4.2-3.8,5.9-6.1c1.7-2.3,3-4.8,3.9-7.4c0.9-2.6,1.4-5.3,1.4-8.1
					c0-2.5-0.4-4.8-1-7.1c-0.7-2.3-1.8-4.3-3.2-6.1C445.6,100.8,443.8,99.4,441.8,98.3 M426.4,106.3c1.9-1.1,4.1-1.7,6.4-1.7
					c2.1,0,3.9,0.5,5.3,1.6c1.4,1.1,2.5,2.5,3.2,4.3s1,3.7,1,5.8c0,2.1-0.4,4.2-1.1,6.4c-0.8,2.2-1.9,4.3-3.3,6.1
					c-1.4,1.8-3.1,3.3-5,4.4c-1.9,1.1-4.1,1.7-6.4,1.7c-2.2,0-4-0.5-5.4-1.6c-1.4-1.1-2.5-2.6-3.1-4.3c-0.7-1.8-1.1-3.7-1.1-5.8
					c0-2.1,0.4-4.3,1.1-6.5c0.8-2.2,1.9-4.2,3.3-6.1C422.8,108.9,424.4,107.4,426.4,106.3 M489.8,121.7c1.6-1.7,2.8-3.7,3.6-5.8
					c0.9-2.1,1.4-4.2,1.4-6.3c0-2.1-0.4-4.1-1.2-6.1c-0.9-1.9-2.1-3.5-3.8-4.7c-1.7-1.2-3.6-1.8-6-1.8h-18.3l-9.6,45.5h8.8l3.2-15.2
					h10c2.3,0,4.4-0.5,6.5-1.6C486.4,124.7,488.2,123.4,489.8,121.7 M485.2,107.4c0.4,0.8,0.6,1.8,0.6,3c0,1.3-0.2,2.5-0.6,3.6
					c-0.4,1.1-0.9,2.1-1.5,3c-0.7,0.8-1.4,1.5-2.2,1.9c-0.8,0.5-1.7,0.8-2.6,0.8h-9.2l3.1-14.8h9c0.8,0,1.5,0.2,2,0.6
					C484.3,105.9,484.8,106.5,485.2,107.4z"/>
			</g>
		</g>
	</g>
	<g transform="matrix( 0.862823486328125, 0, 0, 0.862823486328125, -82.7,4.5) ">
		<g>
			<g id="text_0_Layer1_1_FILL">
				<path d="M45.7,47c0-2.1-0.4-4.2-1.2-6.1c-0.9-1.9-2.1-3.5-3.8-4.7c-1.7-1.2-3.7-1.8-6-1.8H16.4L6.7,79.9h8.8l3.2-15.2h10
					c2.3,0,4.5-0.5,6.6-1.6c2.1-1,3.9-2.4,5.5-4.1c1.6-1.7,2.8-3.7,3.7-5.8C45.2,51.2,45.7,49.1,45.7,47 M23.5,42.2h9
					c0.8,0,1.5,0.2,2,0.7c0.7,0.4,1.2,1.1,1.5,1.9c0.4,0.8,0.6,1.8,0.6,3c0,1.3-0.2,2.6-0.6,3.7c-0.4,1.1-0.9,2.1-1.5,3
					c-0.7,0.8-1.4,1.5-2.3,1.9c-0.8,0.5-1.7,0.8-2.6,0.8h-9.3L23.5,42.2 M85.3,42.2l1.7-7.8H57.9l-9.7,45.5H57L61,61.1h16.8l1.6-7.2
					H62.5L65,42.2H85.3 M137.6,47.9h7.3l3-14.4h-7.3L137.6,47.9 M126.4,48.9c0.7-1.7,1.1-3.4,1.1-5.2c0-1.6-0.3-3.1-0.9-4.5
					c-0.6-1.4-1.4-2.6-2.6-3.5s-2.6-1.4-4.3-1.4H96.5l-9.7,45.5h20.9c2.2,0,4.3-0.3,6.3-0.9c2-0.6,3.8-1.5,5.5-2.7
					c1.6-1.2,2.9-2.7,3.8-4.4c0.9-1.8,1.3-3.9,1.3-6.2c0-2.2-0.5-4.1-1.5-5.7c-1-1.6-2.5-2.7-4.4-3.4c1.8-0.8,3.4-1.8,4.7-3.2
					C124.7,52.1,125.7,50.6,126.4,48.9 M103.6,42h11.2c1.1,0,2,0.4,2.6,1.2c0.6,0.8,1,1.8,1,3.2c0,1.1-0.2,2.1-0.6,3
					c-0.4,0.9-0.8,1.6-1.4,2.3c-0.6,0.6-1.3,1.1-2,1.4c-0.8,0.3-1.5,0.5-2.3,0.5h-10.8L103.6,42 M112.2,60.4c0.8,0,1.4,0.2,2,0.6
					c0.6,0.4,1,1,1.3,1.7c0.3,0.7,0.5,1.5,0.5,2.4c0,1-0.2,1.9-0.6,2.8c-0.4,0.9-0.9,1.7-1.5,2.3c-0.6,0.7-1.3,1.2-2.2,1.6
					c-0.8,0.4-1.7,0.5-2.4,0.5H97.2l2.5-12H112.2 M164.2,47.9c0-1.2,0.3-2.3,0.9-3.2c0.6-0.9,1.4-1.6,2.6-2.2
					c1.2-0.5,2.6-0.8,4.3-0.8c1.3,0,2.6,0.2,3.8,0.6c1.2,0.3,2.2,0.8,3.2,1.2c1,0.4,1.8,0.9,2.4,1.4c0.7,0.5,1,0.9,1.1,1.2l5.5-7.2
					c-1.1-0.9-2.3-1.7-3.8-2.5c-1.4-0.8-3-1.4-4.7-1.9c-1.7-0.5-3.6-0.7-5.6-0.7c-2.5,0-5,0.4-7.3,1.2c-2.3,0.7-4.4,1.8-6.2,3.3
					c-1.8,1.4-3.3,3.2-4.3,5.3c-1.1,2.1-1.6,4.5-1.6,7.1c0,1.7,0.4,3.2,1.1,4.4c0.7,1.2,1.8,2.2,3.3,3.1c1.5,0.9,3.3,1.6,5.4,2.3
					c1.9,0.6,3.5,1.2,5,1.7c1.5,0.5,2.6,1.1,3.5,1.8c0.8,0.7,1.2,1.6,1.2,2.8c0,1.1-0.3,2.1-0.9,2.9c-0.5,0.8-1.4,1.5-2.6,2
					c-1.1,0.4-2.6,0.7-4.2,0.7c-1.7,0-3.2-0.2-4.7-0.6c-1.5-0.4-2.9-1-4.1-1.6c-1.2-0.6-2.2-1.3-3-1.9c-0.8-0.6-1.3-1.1-1.6-1.5
					l-5.5,7.7c2.1,1.8,4.7,3.3,7.7,4.3c3,1,6.1,1.5,9.3,1.5c2.5,0,4.9-0.3,7.2-0.9c2.3-0.6,4.4-1.6,6.2-2.9c1.8-1.3,3.3-3,4.4-5
					c1.1-2,1.6-4.5,1.6-7.4c0-2.1-0.5-3.8-1.4-5.2c-0.9-1.3-2.2-2.4-3.9-3.3c-1.7-0.9-3.7-1.7-5.9-2.4c-1.8-0.5-3.3-1-4.6-1.5
					c-1.2-0.4-2.2-1-2.9-1.6C164.5,49.6,164.2,48.8,164.2,47.9z"/>
			</g>
		</g>
	</g>
	<g transform="matrix( 1.3647918701171875, 0, 0, 1.3647918701171875, -419.05,-50.2) ">
		<g>
			<g id="text_0_Layer0_0_FILL">
				<path class="st0" d="M176.2,93.1h-9.6l-19.3,35.4l-2.1-14.5l11.7-20.7h-8.2l-7.9,15l-1.6-15h-8.2l2.9,20.7l-8.2,14.5l-4.4-35.4
					h-9.6l7.8,45.5h7.4l11.4-19.1l3.2,19.1h7.4L176.2,93.1 M194.7,94.3c-2.6,1-5,2.4-7.3,4.2c-2.3,1.7-4.2,3.7-5.9,6
					c-1.7,2.3-3,4.8-3.9,7.4c-0.9,2.7-1.4,5.4-1.4,8.1c0,2.5,0.4,4.8,1.1,7.1c0.7,2.3,1.8,4.3,3.2,6.1c1.4,1.8,3.2,3.2,5.2,4.2
					c2.1,1,4.5,1.5,7.2,1.5c2.8,0,5.5-0.5,8.1-1.4c2.6-1,5.1-2.3,7.4-4.1c2.2-1.7,4.2-3.8,5.8-6.1c1.7-2.3,3-4.8,3.9-7.4
					c0.9-2.6,1.4-5.3,1.4-8.1c0-2.5-0.3-4.8-1.1-7.1c-0.7-2.3-1.8-4.3-3.2-6.1c-1.4-1.8-3.2-3.2-5.2-4.2c-2.1-1-4.4-1.6-7.1-1.6
					C200.1,92.8,197.4,93.3,194.7,94.3 M206.3,102.3c1.4,1.1,2.4,2.5,3.1,4.3s1.1,3.7,1.1,5.8c0,2.1-0.4,4.2-1.1,6.4
					c-0.8,2.2-1.9,4.3-3.3,6.1c-1.4,1.8-3.1,3.3-5,4.4c-1.9,1.1-4.1,1.7-6.4,1.7c-2.2,0-4-0.5-5.4-1.6c-1.4-1.1-2.4-2.5-3.2-4.3
					c-0.7-1.8-1.1-3.7-1.1-5.8c0-2.1,0.4-4.3,1.2-6.5c0.8-2.2,1.9-4.2,3.3-6.1c1.4-1.8,3.1-3.3,5.1-4.4c1.9-1.1,4.1-1.7,6.4-1.7
					C203.2,100.7,204.9,101.2,206.3,102.3 M313.9,93.1h-9.9L282,114.7l4.6-21.6h-8.8l-9.6,45.4h8.8l2.9-13.6l6.6-6.1l8.9,19.7h9.9
					l-12.1-25.3L313.9,93.1 M258.8,94.9c-1.6-1.2-3.6-1.8-5.9-1.8h-19.2l-9.6,45.5h8.8l3.2-15.2h7.8l5.4,15.2h10l-6.2-17.1
					c1.5-0.6,2.9-1.5,4.2-2.6c1.3-1.1,2.5-2.4,3.5-3.8c1-1.4,1.7-2.9,2.2-4.5c0.5-1.6,0.8-3.2,0.8-4.9c0-2.1-0.4-4.2-1.3-6.1
					C261.7,97.6,260.4,96.1,258.8,94.9 M237.7,115.6l3.1-14.8h9.8c0.8,0,1.5,0.3,2.1,0.8c0.6,0.5,1.1,1.2,1.4,2
					c0.4,0.9,0.6,1.9,0.6,3c0,1.2-0.2,2.3-0.6,3.4c-0.4,1.1-0.9,2-1.6,2.9c-0.7,0.8-1.4,1.5-2.2,2c-0.8,0.5-1.6,0.8-2.6,0.8H237.7
					 M399.4,93.1h-8.8l-3.9,18.4h-19l3.9-18.4h-8.8l-9.6,45.5h8.8l4.1-19.4H385l-4.1,19.4h8.8L399.4,93.1 M350.6,97.8
					c-1.1-0.9-2.3-1.7-3.8-2.5c-1.4-0.8-3-1.4-4.7-1.9c-1.7-0.5-3.6-0.7-5.6-0.7c-2.5,0-4.9,0.4-7.2,1.2c-2.3,0.7-4.4,1.8-6.1,3.2
					c-1.8,1.4-3.3,3.2-4.3,5.2c-1.1,2.1-1.6,4.5-1.6,7.1c0,1.7,0.4,3.2,1.1,4.4c0.7,1.2,1.8,2.2,3.2,3.1c1.5,0.9,3.3,1.6,5.5,2.3
					c1.9,0.6,3.5,1.2,4.9,1.7c1.5,0.5,2.6,1.1,3.5,1.8c0.8,0.7,1.2,1.6,1.2,2.8c0,1.1-0.3,2.1-0.9,2.9c-0.5,0.8-1.4,1.5-2.5,1.9
					c-1.1,0.4-2.5,0.7-4.2,0.7c-1.7,0-3.2-0.2-4.7-0.6c-1.5-0.4-2.8-0.9-4-1.6c-1.2-0.6-2.2-1.3-3-1.9c-0.8-0.6-1.3-1.1-1.5-1.5
					l-5.5,7.7c2.1,1.8,4.6,3.3,7.6,4.3c3,1,6.1,1.6,9.2,1.6c2.5,0,4.9-0.3,7.1-0.9c2.3-0.6,4.4-1.6,6.2-2.9c1.8-1.3,3.3-3,4.4-5
					c1.1-2,1.6-4.5,1.6-7.4c0-2.1-0.5-3.8-1.5-5.2c-0.9-1.3-2.2-2.4-3.9-3.3c-1.7-0.9-3.7-1.7-5.9-2.3c-1.8-0.5-3.3-1-4.6-1.5
					c-1.2-0.4-2.2-1-2.9-1.6c-0.7-0.7-1-1.5-1-2.4c0-1.2,0.3-2.3,0.9-3.2c0.6-0.9,1.4-1.6,2.6-2.2c1.2-0.5,2.6-0.8,4.2-0.8
					c1.3,0,2.5,0.2,3.8,0.6c1.2,0.3,2.2,0.8,3.2,1.2c1,0.4,1.8,0.9,2.4,1.5c0.7,0.5,1.1,0.9,1.1,1.2L350.6,97.8 M443,98.6
					c-1.4-1.8-3.2-3.2-5.2-4.2c-2.1-1-4.4-1.6-7.1-1.6c-2.8,0-5.6,0.5-8.2,1.5c-2.6,1-5,2.4-7.3,4.2c-2.3,1.7-4.3,3.7-6,6
					c-1.7,2.3-3,4.8-3.9,7.4c-0.9,2.7-1.4,5.4-1.4,8.1c0,2.5,0.4,4.8,1,7.1c0.7,2.3,1.8,4.3,3.2,6.1c1.4,1.8,3.2,3.2,5.2,4.2
					c2.1,1,4.5,1.5,7.2,1.5c2.8,0,5.4-0.5,8-1.4c2.6-1,5.1-2.3,7.4-4.1c2.2-1.7,4.2-3.8,5.9-6.1c1.7-2.3,3-4.8,3.9-7.4
					c0.9-2.6,1.4-5.3,1.4-8.1c0-2.5-0.4-4.8-1-7.1C445.5,102.4,444.4,100.4,443,98.6 M428.8,100.7c2.1,0,3.9,0.5,5.3,1.6
					c1.4,1.1,2.5,2.5,3.1,4.3c0.7,1.8,1,3.7,1.1,5.8c0,2.1-0.4,4.2-1.1,6.4c-0.8,2.2-1.9,4.3-3.3,6.1c-1.4,1.8-3.1,3.3-5,4.4
					c-1.9,1.1-4.1,1.7-6.4,1.7c-2.2,0-4-0.5-5.4-1.6c-1.4-1.1-2.5-2.5-3.1-4.3c-0.7-1.8-1.1-3.7-1.1-5.8c0-2.1,0.4-4.3,1.1-6.5
					c0.8-2.2,1.9-4.2,3.3-6.1c1.4-1.8,3.1-3.3,5-4.4C424.3,101.2,426.5,100.7,428.8,100.7 M489.4,111.9c0.9-2.1,1.4-4.2,1.4-6.3
					c0-2.1-0.4-4.2-1.2-6.1c-0.9-1.9-2.1-3.5-3.8-4.7c-1.7-1.2-3.6-1.8-6-1.8h-18.3l-9.6,45.5h8.8l3.2-15.2h10
					c2.3,0,4.4-0.5,6.5-1.6c2.1-1,3.9-2.3,5.5-4C487.3,115.9,488.5,114,489.4,111.9 M481.8,106.3c0,1.3-0.2,2.5-0.6,3.6
					c-0.4,1.1-0.9,2.1-1.5,3c-0.7,0.8-1.4,1.5-2.2,1.9c-0.8,0.5-1.7,0.8-2.6,0.8h-9.2l3.1-14.8h9c0.8,0,1.5,0.2,2,0.6
					c0.7,0.4,1.2,1.1,1.5,1.9C481.6,104.2,481.8,105.2,481.8,106.3z"/>
			</g>
		</g>
	</g>
	<g transform="matrix( 0.862823486328125, 0, 0, 0.862823486328125, -82.25,5.4) ">
		<g>
			<g id="text_0_Layer0_1_FILL">
				<path class="st1" d="M40.4,36.9c-0.9-1.9-2.1-3.5-3.8-4.7c-1.7-1.2-3.7-1.8-6-1.8H12.4L2.7,75.9h8.8l3.2-15.2h10
					c2.3,0,4.5-0.5,6.6-1.6c2.1-1,3.9-2.4,5.5-4.1c1.6-1.7,2.8-3.7,3.7-5.8c0.9-2.1,1.4-4.2,1.4-6.3C41.7,40.8,41.2,38.8,40.4,36.9
					 M19.5,38.2h9c0.8,0,1.5,0.2,2.1,0.6c0.7,0.4,1.2,1.1,1.5,1.9c0.4,0.8,0.6,1.8,0.6,3c0,1.3-0.2,2.6-0.6,3.7
					c-0.4,1.1-0.9,2.1-1.5,3s-1.4,1.5-2.3,1.9c-0.8,0.5-1.7,0.8-2.6,0.8h-9.3L19.5,38.2 M81.3,38.2l1.7-7.8H53.9l-9.7,45.5H53
					L57,57.1h16.8l1.6-7.2H58.5L61,38.2H81.3 M123.5,39.7c0-1.6-0.3-3.1-0.9-4.5c-0.6-1.4-1.4-2.6-2.6-3.5c-1.1-0.9-2.5-1.4-4.2-1.4
					H92.5l-9.7,45.5h20.9c2.2,0,4.4-0.3,6.4-0.9c2-0.6,3.8-1.5,5.5-2.7c1.6-1.2,2.9-2.7,3.8-4.5c0.9-1.8,1.3-3.9,1.3-6.2
					c0-2.2-0.5-4.1-1.5-5.7c-1-1.6-2.5-2.7-4.4-3.4c1.8-0.8,3.4-1.8,4.7-3.1s2.3-2.9,3-4.6C123.1,43.2,123.5,41.4,123.5,39.7
					 M97.2,49.4L99.6,38h11.2c1.1,0,2,0.4,2.6,1.2c0.6,0.8,1,1.8,1,3.2c0,1.1-0.2,2.1-0.6,3c-0.4,0.9-0.8,1.6-1.4,2.3
					c-0.6,0.6-1.3,1.1-2,1.4c-0.8,0.3-1.5,0.5-2.3,0.5H97.2 M111.5,58.8c0.3,0.7,0.5,1.5,0.5,2.4c0,1-0.2,1.9-0.6,2.8
					c-0.4,0.9-0.9,1.7-1.5,2.4c-0.6,0.7-1.3,1.2-2.2,1.6c-0.8,0.4-1.7,0.5-2.5,0.5H93.2l2.5-12h12.6c0.8,0,1.4,0.2,2,0.7
					C110.8,57.5,111.2,58,111.5,58.8z"/>
				<path class="st0" d="M133.6,43.9h7.3l3-14.4h-7.3L133.6,43.9 M180.2,32.7c-1.4-0.8-3-1.4-4.7-1.9c-1.7-0.5-3.6-0.7-5.6-0.7
					c-2.5,0-4.9,0.4-7.2,1.2c-2.3,0.7-4.4,1.8-6.2,3.3c-1.8,1.4-3.3,3.2-4.3,5.3c-1.1,2.1-1.6,4.5-1.6,7.1c0,1.7,0.4,3.2,1.1,4.4
					c0.7,1.2,1.8,2.2,3.2,3.1c1.5,0.9,3.3,1.6,5.5,2.3c1.9,0.6,3.5,1.2,5,1.7c1.5,0.5,2.6,1.1,3.4,1.8c0.8,0.7,1.2,1.6,1.2,2.8
					s-0.3,2.1-0.9,2.9c-0.5,0.8-1.4,1.5-2.6,1.9c-1.1,0.4-2.6,0.7-4.2,0.7c-1.7,0-3.2-0.2-4.7-0.6c-1.5-0.4-2.9-1-4.1-1.6
					c-1.2-0.6-2.2-1.3-2.9-1.9c-0.8-0.6-1.3-1.1-1.6-1.5l-5.5,7.7c2.1,1.8,4.7,3.3,7.7,4.3c3,1,6.1,1.5,9.3,1.5
					c2.5,0,4.9-0.3,7.1-0.9c2.3-0.6,4.4-1.6,6.2-2.8c1.8-1.3,3.3-3,4.4-5c1.1-2,1.6-4.5,1.6-7.4c0-2.1-0.5-3.8-1.4-5.2
					c-0.9-1.3-2.2-2.4-3.9-3.3c-1.7-0.9-3.7-1.7-5.9-2.3c-1.8-0.5-3.3-1-4.6-1.5c-1.2-0.4-2.2-1-2.9-1.6c-0.7-0.7-1-1.5-1-2.4
					c0-1.2,0.3-2.3,0.9-3.2c0.6-0.9,1.4-1.6,2.6-2.2c1.2-0.5,2.6-0.8,4.2-0.8c1.3,0,2.6,0.2,3.8,0.6c1.2,0.3,2.2,0.8,3.2,1.2
					c1,0.4,1.8,0.9,2.4,1.4c0.7,0.5,1,0.9,1.1,1.2l5.4-7.2C182.8,34.3,181.6,33.4,180.2,32.7z"/>
			</g>
		</g>
	</g>
</g>
</svg>
